# xmcd
#
# Track frame offsets:
# 150
# 20730
# 42180
# 59250
# 87185
# 103340
# 110050
# 113585
# 120622
# 141150
# 155132
# 162702
# 172837
# 184205
# 191515
# 204385
# 218557
# 237732
# 253017
# 266967
# 286190
# 300927
#
# Disc length: 4286 seconds
#
# Revision: 0
# Processed by: cddbd v1.4PL0 Copyright (c) Steve Scherf et al.
# Submitted via: Audion 3.0.2 (http://www.panic.com/audion/)
#
DISCID=4610bc16
DTITLE=Andsnes, Leif Ove - Grieg Piano Music
DYEAR=1900
DGENRE=
TTITLE0=Piano Sonata in E minor, op. 7 - I
TTITLE1=Piano Sonata in E minor, op. 7 - II
TTITLE2=Piano Sonata in E minor, op. 7 - III
TTITLE3=Piano Sonata in E minor, op. 7 - IV
TTITLE4=Poetic Tone-pictures, op. 3 no. 4
TTITLE5=Poetic Tone-pictures, op. 3 no. 5
TTITLE6=Poetic Tone-pictures, op. 3 no. 6
TTITLE7=Album Leaf, op. 28, no 1
TTITLE8=Album Leaf, op. 28, no 4
TTITLE9=AGITATO (1865)
TTITLE10=Lyric Pieces, op. 43 - Sommerfugl
TTITLE11=Lyric Pieces, op. 43 - Ensom Vandrer
TTITLE12=Lyric Pieces, op. 43 - I Hjemmet
TTITLE13=Lyric Pieces, op. 43 - Lien Fugl
TTITLE14=Lyric Pieces, op. 43 - Erotikon
TTITLE15=Lyric Pieces, op. 43 - Til Foraret
TTITLE16=Lyric Pieces, op. 54 - Gjaetergut
TTITLE17=Lyric Pieces, op. 54 - Gangar
TTITLE18=Lyric Pieces, op. 54 - Troldtog
TTITLE19=Lyric Pieces, op. 54 - Notturno
TTITLE20=Lyric Pieces, op. 54 - Scherzo
TTITLE21=Lyric Pieces, op. 54 - Klokkeklang
EXTD=
EXTT0=
EXTT1=
EXTT2=
EXTT3=
EXTT4=
EXTT5=
EXTT6=
EXTT7=
EXTT8=
EXTT9=
EXTT10=
EXTT11=
EXTT12=
EXTT13=
EXTT14=
EXTT15=
EXTT16=
EXTT17=
EXTT18=
EXTT19=
EXTT20=
EXTT21=
PLAYORDER=
